<svg height="682.66669pt" viewBox="-21 -21 682.66669 682.66669" width="682.66669pt" xmlns="http://www.w3.org/2000/svg"><path d="m590 100h-37.5c0-55.140625-44.859375-100-100-100h-265c-55.140625 0-100 44.859375-100 100h-37.5c-27.570312 0-50 22.429688-50 50v83.75h50v-83.75h37.5v362.5c0 27.699219 15.109375 51.917969 37.5 64.914062v12.585938c0 27.570312 22.429688 50 50 50s50-22.429688 50-50v-2.5h187.5v2.5c0 27.570312 22.429688 50 50 50s50-22.429688 50-50v-11.195312c23.765625-12.597657 40-37.585938 40-66.304688v-362.5h37.5v83.75h50v-83.75c0-27.570312-22.429688-50-50-50zm-112.5 437.5h-315c-13.785156 0-25-11.214844-25-25v-145.1875l33.257812 24.40625c12.953126 9.507812 28.300782 14.53125 44.367188 14.53125h219.113281c17.667969 0 34.828125-6.269531 48.339844-17.65625l19.921875-16.796875v140.703125c0 13.785156-11.214844 25-25 25zm25-387.5v156.402344l-52.148438 43.957031c-4.5 3.800781-10.226562 5.890625-16.113281 5.890625h-89.238281v-206.25zm-207.5 206.25h-79.875c-5.355469 0-10.46875-1.675781-14.789062-4.84375l-62.835938-46.113281v-155.292969h157.5zm-107.5-306.25h265c27.570312 0 50 22.429688 50 50h-365c0-27.570312 22.429688-50 50-50zm37.5 425c0 13.808594-11.191406 25-25 25s-25-11.191406-25-25 11.191406-25 25-25 25 11.191406 25 25zm238.75 0c0 13.808594-11.191406 25-25 25s-25-11.191406-25-25 11.191406-25 25-25 25 11.191406 25 25zm0 0"/></svg>